<?xml version="1.0" encoding="UTF-8"?>
<svg version="1.1" xmlns="http://www.w3.org/2000/svg" width="400" height="240">
<path d="M0 0 C3.46182151 3.5505579 4.43470664 8.00761512 5.77734375 12.6484375 C6.15627525 13.92190536 6.15627525 13.92190536 6.54286194 15.22109985 C7.34885806 17.93683435 8.14325665 20.65580792 8.9375 23.375 C9.46735384 25.16558524 9.99794572 26.95595226 10.52929688 28.74609375 C11.80132551 33.04013519 13.05986565 37.3379531 14.31121826 41.63806152 C14.9597343 43.86192273 15.61422953 46.08393923 16.27001953 48.30566406 C16.81891846 50.18463379 16.81891846 50.18463379 17.37890625 52.1015625 C17.69545166 53.18002441 18.01199707 54.25848633 18.33813477 55.36962891 C19 58 19 58 19 61 C12.4 61 5.8 61 -1 61 C-4.67092678 49.4224617 -7.84820005 37.72766444 -11 26 C-13.1886193 28.77720568 -14.89876689 31.54738355 -16.48828125 34.703125 C-16.94783203 35.60160156 -17.40738281 36.50007813 -17.88085938 37.42578125 C-18.82659067 39.29143944 -19.76935764 41.15860359 -20.70898438 43.02734375 C-27.80961265 56.8730751 -27.80961265 56.8730751 -34 61 C-38.97112026 61.81283378 -42.85934839 61.65806823 -47.25 59.125 C-53.6316729 52.68984939 -57.26635282 43.66617109 -61.19677734 35.62182617 C-61.51727051 34.96674072 -61.83776367 34.31165527 -62.16796875 33.63671875 C-62.44922607 33.05623779 -62.7304834 32.47575684 -63.02026367 31.87768555 C-64.24875712 29.52325167 -65.61798417 27.26699302 -67 25 C-67.2673999 26.0194873 -67.5347998 27.03897461 -67.81030273 28.08935547 C-68.80140532 31.86565854 -69.79540229 35.64119465 -70.7902832 39.41650391 C-71.22076352 41.05171206 -71.65045481 42.68712815 -72.0793457 44.32275391 C-72.69536156 46.67144788 -73.31419556 49.01938358 -73.93359375 51.3671875 C-74.12529648 52.10057343 -74.31699921 52.83395935 -74.51451111 53.58956909 C-75.88612829 58.77225659 -75.88612829 58.77225659 -77 61 C-84.48526591 61.09331455 -91.97047034 61.16407292 -99.4561882 61.20724869 C-102.93340578 61.22798728 -106.41022096 61.25604728 -109.88720703 61.30175781 C-113.89879882 61.35415724 -117.90997823 61.3730583 -121.921875 61.390625 C-123.15049255 61.41127014 -124.37911011 61.43191528 -125.6449585 61.45318604 C-138.16737029 61.45639138 -148.30934336 58.32406839 -157.625 49.8125 C-163.37749761 43.89455445 -165.83951902 36.57370795 -166.125 28.4375 C-166 25 -166 25 -165 21 C-158.07 21 -151.14 21 -144 21 C-143.67 21.66 -143.34 22.32 -143 23 C-143.33 23.66 -143.66 24.32 -144 25 C-144.55895711 29.58161565 -144.38675023 33.12981198 -142.5 37.375 C-137.69231591 42.42306829 -131.68425308 43.32689176 -124.99499512 43.49235535 C-124.16133423 43.49874527 -123.32767334 43.50513519 -122.46875 43.51171875 C-121.59222778 43.52966995 -120.71570557 43.54762115 -119.81262207 43.56611633 C-117.04179547 43.61984509 -114.27113735 43.65399373 -111.5 43.6875 C-109.60935174 43.72070621 -107.71872561 43.75519888 -105.828125 43.79101562 C-101.21887235 43.87554955 -96.6096664 43.94253791 -92 44 C-91.74367798 42.93338135 -91.74367798 42.93338135 -91.48217773 41.84521484 C-89.57071581 34.03072739 -87.40341353 26.32103191 -85.0625 18.625 C-84.72798828 17.48933594 -84.39347656 16.35367188 -84.04882812 15.18359375 C-80.04780561 2.0318704 -80.04780561 2.0318704 -74 -2 C-71.6953125 -2.37109375 -71.6953125 -2.37109375 -69.125 -2.4375 C-68.28195313 -2.47746094 -67.43890625 -2.51742187 -66.5703125 -2.55859375 C-61.74760953 -1.51049873 -59.28782616 2.43353742 -56.67578125 6.35546875 C-55.87979904 7.6277053 -55.09240395 8.90534426 -54.3125 10.1875 C-53.8911377 10.87005859 -53.46977539 11.55261719 -53.03564453 12.25585938 C-48.08992447 20.3518477 -43.53250669 28.66790259 -39 37 C-35.7336152 31.58574053 -32.49958175 26.15439247 -29.30859375 20.6953125 C-28.01833438 18.50514635 -26.72796855 16.31504291 -25.4375 14.125 C-24.79103516 13.01125 -24.14457031 11.8975 -23.47851562 10.75 C-22.84494141 9.68007812 -22.21136719 8.61015625 -21.55859375 7.5078125 C-20.99454834 6.54504395 -20.43050293 5.58227539 -19.84936523 4.59033203 C-17.18743647 0.86187471 -14.49558685 -1.51230864 -10.125 -2.9375 C-6.04127063 -3.01917459 -3.56547614 -1.95092091 0 0 Z " fill="#0C89D0" transform="translate(318,92)"/>
<path d="M0 0 C-0.64396698 1.34444366 -1.31876468 2.67405103 -2 4 C-2.53167786 5.05130096 -3.06335571 6.10260193 -3.61114502 7.1857605 C-6.62922671 12.18447805 -9.91237597 16.16222508 -15.71995544 17.73801422 C-23.48214549 18.82025213 -31.30869769 18.60145891 -39.12594891 18.42125559 C-42.57789162 18.35639335 -46.02956855 18.36850333 -49.48199463 18.37277222 C-56.01210003 18.36990387 -62.53983889 18.3037258 -69.06924081 18.21200454 C-78.64806907 18.07987038 -88.22740369 18.03383934 -97.80702591 17.99961662 C-98.51175687 17.99707504 -99.21648782 17.99453346 -99.94257426 17.99191487 C-101.34826045 17.98689117 -102.75394732 17.98205642 -104.15963483 17.97741592 C-108.91730303 17.95906703 -113.67357589 17.90541393 -118.43084717 17.84109497 C-120.92232052 17.81847544 -123.41379586 17.79607396 -125.90527344 17.77392578 C-127.03166733 17.75206711 -128.15806122 17.73020844 -129.31858826 17.70768738 C-135.34698099 17.67165563 -139.71692505 17.99359358 -145 21 C-148.13393896 24.38135519 -149.92025855 26.61781489 -150.1875 31.25 C-150.00118044 34.97639113 -149.570566 37.62328309 -148 41 C-146.26838037 42.36640898 -146.26838037 42.36640898 -144 43 C-143.10200684 43.33692871 -142.20401367 43.67385742 -141.27880859 44.02099609 C-137.8179667 45.05435246 -134.89333424 45.31486236 -131.2890625 45.4140625 C-129.42314453 45.47207031 -129.42314453 45.47207031 -127.51953125 45.53125 C-126.23433594 45.5621875 -124.94914062 45.593125 -123.625 45.625 C-122.31660156 45.66367188 -121.00820312 45.70234375 -119.66015625 45.7421875 C-116.44024284 45.83619957 -113.2203312 45.92185821 -110 46 C-110 43.69 -110 41.38 -110 39 C-120.23 39 -130.46 39 -141 39 C-141 34.8649704 -139.26315315 33.56250475 -136.625 30.4375 C-135.81289062 29.46683594 -135.00078125 28.49617188 -134.1640625 27.49609375 C-132.82594818 25.95267308 -131.44441983 24.44441983 -130 23 C-126.98691049 22.82453518 -124.06689546 22.76872555 -121.0546875 22.8046875 C-119.72716965 22.80893234 -119.72716965 22.80893234 -118.37283325 22.81326294 C-115.54008588 22.8244776 -112.70765216 22.8495843 -109.875 22.875 C-107.95703581 22.88502815 -106.03906667 22.89415428 -104.12109375 22.90234375 C-99.41394124 22.92442111 -94.70702384 22.95895955 -90 23 C-88.57781713 25.84436574 -88.87020131 28.26420978 -88.8671875 31.44140625 C-88.86589844 32.74787109 -88.86460937 34.05433594 -88.86328125 35.40039062 C-88.86537598 36.08464111 -88.8674707 36.7688916 -88.86962891 37.47387695 C-88.87491691 39.530188 -88.86971416 41.58627444 -88.86328125 43.64257812 C-88.86457031 44.95806641 -88.86585938 46.27355469 -88.8671875 47.62890625 C-88.86831543 48.82588135 -88.86944336 50.02285645 -88.87060547 51.25610352 C-89.01873823 55.54217134 -89.46746063 59.74723852 -90 64 C-97.080411 63.93265175 -104.16028487 63.84271086 -111.24023438 63.73754883 C-113.64544272 63.70443036 -116.05072634 63.67635833 -118.45605469 63.65356445 C-121.92675659 63.61977759 -125.39677673 63.56744905 -128.8671875 63.51171875 C-129.93113739 63.50532883 -130.99508728 63.4989389 -132.09127808 63.49235535 C-143.65109883 63.26809165 -154.05776171 60.21226045 -162.8203125 52.37109375 C-169.68624177 44.93587889 -171.70693885 37.4082064 -171.3828125 27.37109375 C-170.49157642 19.52275969 -166.75586217 13.32950201 -161 8 C-151.40808981 0.39262296 -140.81658391 -0.44698147 -128.953125 -0.44824219 C-127.56574001 -0.45891761 -126.17836437 -0.47087102 -124.79100037 -0.48399353 C-121.05396586 -0.51563289 -117.31706898 -0.52919366 -113.57992172 -0.53904247 C-109.66104593 -0.55221661 -105.74228591 -0.5813445 -101.82348633 -0.60845947 C-95.25360473 -0.65163292 -88.68374541 -0.68381192 -82.11376953 -0.70849609 C-73.67522939 -0.74026168 -65.23690293 -0.7904961 -56.79849243 -0.84641647 C-49.53862298 -0.89436373 -42.27871064 -0.93371861 -35.01878357 -0.97177219 C-32.6853274 -0.98438674 -30.35188079 -0.99822108 -28.01843262 -1.01222992 C-24.36092656 -1.03365627 -20.70343429 -1.04972785 -17.04588509 -1.06158638 C-15.05917463 -1.06915514 -13.07248493 -1.08165923 -11.08580017 -1.09428406 C-9.91110672 -1.09698807 -8.73641327 -1.09969208 -7.52612305 -1.10247803 C-6.50117233 -1.10687771 -5.47622162 -1.11127739 -4.42021179 -1.11581039 C-2 -1 -2 -1 0 0 Z " fill="#097BCD" transform="translate(236,90)"/>
<path d="M0 0 C-0.65954946 1.33686826 -1.32854494 2.66907163 -2 4 C-2.43828125 4.97779922 -2.8765625 5.95559845 -3.328125 6.96302795 C-5.73639209 10.96470315 -7.83994782 13.7680106 -12 16 C-20.99380762 18.23346239 -30.59092446 17.63678474 -39.80464554 17.51745105 C-43.49939486 17.48150703 -47.19365173 17.51150491 -50.88842773 17.53346252 C-57.0822311 17.56102625 -63.27459676 17.54459094 -69.46826172 17.49731445 C-77.42293603 17.43675897 -85.37593627 17.44541885 -93.33071899 17.47698879 C-100.17541565 17.50404088 -107.0200694 17.50419935 -113.86480713 17.49757886 C-116.0642538 17.49609256 -118.26368825 17.49742767 -120.46313477 17.49877739 C-124.54990353 17.49878797 -128.63601121 17.47097218 -132.72265625 17.43920898 C-133.94340347 17.44049301 -135.1641507 17.44177704 -136.42189026 17.44309998 C-137.52927048 17.43004822 -138.6366507 17.41699646 -139.77758789 17.40354919 C-141.22652184 17.39538004 -141.22652184 17.39538004 -142.70472717 17.38704586 C-143.46216721 17.25932073 -144.21960724 17.13159559 -145 17 C-145.66 16.01 -146.32 15.02 -147 14 C-147.99 14.495 -147.99 14.495 -149 15 C-150.34246312 14.35191436 -151.67432801 13.68177416 -153 13 C-154.65740715 12.62331656 -156.32345271 12.27942455 -158 12 C-158 10.02 -158 8.04 -158 6 C-156.81679424 5.36690809 -155.62812152 4.74403282 -154.4375 4.125 C-153.77621094 3.77695313 -153.11492187 3.42890625 -152.43359375 3.0703125 C-144.72538267 -0.31981565 -137.63778006 -0.31058487 -129.29370117 -0.3347168 C-127.90676207 -0.34566467 -126.51982941 -0.35745683 -125.13290405 -0.37002563 C-121.38332492 -0.4014925 -117.63377336 -0.42082677 -113.88410354 -0.43764853 C-109.95722211 -0.45705573 -106.03041723 -0.48675988 -102.10359192 -0.51509094 C-95.5157853 -0.56107939 -88.92796896 -0.59950381 -82.34008789 -0.63305664 C-74.71855101 -0.67193392 -67.09713771 -0.72121967 -59.47570246 -0.77638692 C-52.14211211 -0.82936504 -44.80849718 -0.87656303 -37.47484779 -0.92057228 C-34.35326165 -0.93931535 -31.23169431 -0.95981678 -28.1101284 -0.98166466 C-24.44035559 -1.00697794 -20.77058949 -1.02715189 -17.10076523 -1.043293 C-15.10686572 -1.05322988 -13.11299296 -1.06814202 -11.11912537 -1.08317566 C-9.35058197 -1.08939941 -9.35058197 -1.08939941 -7.54631042 -1.0957489 C-6.51746325 -1.1014474 -5.48861609 -1.1071459 -4.42859173 -1.11301708 C-2 -1 -2 -1 0 0 Z " fill="#0A85CF" transform="translate(236,90)"/>
<path d="M0 0 C3.46182151 3.5505579 4.43470664 8.00761512 5.77734375 12.6484375 C6.02996475 13.49741608 6.28258575 14.34639465 6.54286194 15.22109985 C7.34885806 17.93683435 8.14325665 20.65580792 8.9375 23.375 C9.46735384 25.16558524 9.99794572 26.95595226 10.52929688 28.74609375 C11.80132551 33.04013519 13.05986565 37.3379531 14.31121826 41.63806152 C14.9597343 43.86192273 15.61422953 46.08393923 16.27001953 48.30566406 C16.63595215 49.55831055 17.00188477 50.81095703 17.37890625 52.1015625 C17.69545166 53.18002441 18.01199707 54.25848633 18.33813477 55.36962891 C19 58 19 58 19 61 C12.4 61 5.8 61 -1 61 C-4.67092678 49.4224617 -7.84820005 37.72766444 -11 26 C-13.20393696 28.79858637 -14.93773401 31.60390835 -16.55859375 34.7734375 C-17.26145508 36.1346875 -17.26145508 36.1346875 -17.97851562 37.5234375 C-18.70071289 38.93496094 -18.70071289 38.93496094 -19.4375 40.375 C-22.37658069 46.11830478 -25.26991494 51.72673554 -29 57 C-30 54 -30 54 -28.5625 50.8125 C-28.046875 49.884375 -27.53125 48.95625 -27 48 C-26.34 48 -25.68 48 -25 48 C-25 46.68 -25 45.36 -25 44 C-24.34 44 -23.68 44 -23 44 C-22.855625 43.401875 -22.71125 42.80375 -22.5625 42.1875 C-22.1127561 40.43849596 -21.57107659 38.71322977 -21 37 C-21.39621776 33.8302579 -21.9891095 31.03267151 -23 28 C-29.67947311 31.81684178 -33.47541952 35.21191907 -37 42 C-40 41 -40 41 -41.1875 38.9375 C-41.455625 38.298125 -41.72375 37.65875 -42 37 C-42.99 37 -43.98 37 -45 37 C-45 35.35 -45 33.7 -45 32 C-43.515 31.505 -43.515 31.505 -42 31 C-41.01 32.98 -40.02 34.96 -39 37 C-35.7336152 31.58574053 -32.49958175 26.15439247 -29.30859375 20.6953125 C-28.01833438 18.50514635 -26.72796855 16.31504291 -25.4375 14.125 C-24.79103516 13.01125 -24.14457031 11.8975 -23.47851562 10.75 C-22.84494141 9.68007812 -22.21136719 8.61015625 -21.55859375 7.5078125 C-20.71252563 6.06365967 -20.71252563 6.06365967 -19.84936523 4.59033203 C-17.18743647 0.86187471 -14.49558685 -1.51230864 -10.125 -2.9375 C-6.04127063 -3.01917459 -3.56547614 -1.95092091 0 0 Z " fill="#0A76C9" transform="translate(318,92)"/>
<path d="M0 0 C0.33 0.99 0.66 1.98 1 3 C3.11785113 4.11785113 3.11785113 4.11785113 6 5 C6.825 5.350625 7.65 5.70125 8.5 6.0625 C11.02316439 7.17556172 11.02316439 7.17556172 14 7 C14.33 7.66 14.66 8.32 15 9 C58.23 9 101.46 9 146 9 C146 9.33 146 9.66 146 10 C145.36223601 10.00238835 144.72447203 10.00477671 144.06738186 10.00723743 C128.53438938 10.06642658 113.00157555 10.14200157 97.46875668 10.23571491 C89.95713137 10.28064109 82.44555314 10.32006302 74.93383789 10.34643555 C68.38504892 10.36944145 61.83640931 10.40286827 55.28773886 10.44870156 C51.82167044 10.47259905 48.35574962 10.49135048 44.88960075 10.49761391 C41.0159983 10.50480917 37.14276508 10.53527444 33.26928711 10.56762695 C32.12561172 10.56619186 30.98193634 10.56475677 29.80360413 10.5632782 C23.77453332 10.63449918 19.28742091 11.00338698 14 14 C10.86606104 17.38135519 9.07974145 19.61781489 8.8125 24.25 C8.99881956 27.97639113 9.429434 30.62328309 11 34 C12.88370471 35.3169667 12.88370471 35.3169667 15 36 C15.99 36.66 16.98 37.32 18 38 C11.52168198 37.670594 9.55150665 36.80436813 5 32 C2.8522367 31.99521963 2.8522367 31.99521963 1 33 C-0.485 33.495 -0.485 33.495 -2 34 C-2.33 34.99 -2.66 35.98 -3 37 C-2.34 37 -1.68 37 -1 37 C-1 37.99 -1 38.98 -1 40 C-0.34 40.66 0.32 41.32 1 42 C2.48405886 44.34325083 3.13212046 45.37271502 2.55078125 48.1328125 C2.36902344 48.74898437 2.18726562 49.36515625 2 50 C-4.98275321 44.96674642 -9.34401889 39.23935746 -12 31 C-13.34917812 21.51423996 -12.18798482 13.65164278 -6.46875 5.93359375 C-2.68427835 1.34213918 -2.68427835 1.34213918 0 0 Z " fill="#1278C3" transform="translate(77,97)"/>
<path d="M0 0 C-1.6281644 3.75730247 -4.01401917 6.616823 -6.625 9.75 C-7.85089844 11.22726563 -7.85089844 11.22726563 -9.1015625 12.734375 C-9.72804687 13.48203125 -10.35453125 14.2296875 -11 15 C-11 11.89448334 -10.4606285 10.64738916 -9 8 C-8.34 8 -7.68 8 -7 8 C-7 6.68 -7 5.36 -7 4 C-6.34 4 -5.68 4 -5 4 C-5 3.34 -5 2.68 -5 2 C-73.31 1.505 -73.31 1.505 -143 1 C-143 0.67 -143 0.34 -143 0 C-124.65047061 -0.15380519 -106.30090425 -0.30184106 -87.95127296 -0.4429636 C-79.43168331 -0.50862096 -70.91211664 -0.57618327 -62.39257812 -0.64819336 C-54.96902011 -0.71093505 -47.54544386 -0.77014004 -40.12182367 -0.82505554 C-36.18921705 -0.85427126 -32.25664281 -0.88528675 -28.32408524 -0.92053413 C-24.62568677 -0.95362696 -20.92728264 -0.98200526 -17.22881889 -1.00670624 C-15.2181462 -1.02138014 -13.2075124 -1.04110807 -11.19688416 -1.06095886 C-10.00773911 -1.06799835 -8.81859406 -1.07503784 -7.59341431 -1.08229065 C-6.55547541 -1.09058679 -5.51753651 -1.09888292 -4.44814491 -1.10743046 C-2 -1 -2 -1 0 0 Z " fill="#2F89C3" transform="translate(236,90)"/>
<path d="M0 0 C1.89510748 0.0401595 3.79029634 0.07665596 5.68554688 0.109375 C10.31321582 0.19722333 14.93696225 0.33508539 19.5625 0.5 C20.94476016 3.26452033 20.65775387 5.5461363 20.625 8.625 C20.61597656 9.72070312 20.60695312 10.81640625 20.59765625 11.9453125 C20.58605469 12.78835937 20.57445312 13.63140625 20.5625 14.5 C18.5625 11.5 18.5625 11.5 18.5625 2.5 C6.0225 2.5 -6.5175 2.5 -19.4375 2.5 C-19.1075 4.15 -18.7775 5.8 -18.4375 7.5 C-22.09083143 10.13379708 -24.92271602 11.96884894 -29.4375 12.5 C-28.78002927 11.1621082 -28.11115651 9.82981545 -27.4375 8.5 C-26.93851196 7.4490918 -26.93851196 7.4490918 -26.42944336 6.37695312 C-20.60106098 -2.74111401 -9.50781436 -0.34906168 0 0 Z " fill="#207AB5" transform="translate(126.4375,112.5)"/>
<path d="M0 0 C0.33 0 0.66 0 1 0 C1 2.97 1 5.94 1 9 C-6.080411 8.93265175 -13.16028487 8.84271086 -20.24023438 8.73754883 C-22.64544272 8.70443036 -25.05072634 8.67635833 -27.45605469 8.65356445 C-30.92675659 8.61977759 -34.39677673 8.56744905 -37.8671875 8.51171875 C-38.93113739 8.50532883 -39.99508728 8.4989389 -41.09127808 8.49235535 C-49.39070997 8.33134409 -56.61530932 6.86760017 -64 3 C-64 2.34 -64 1.68 -64 1 C-62.02 1 -60.04 1 -58 1 C-58.33 1.99 -58.66 2.98 -59 4 C-55.7 4 -52.4 4 -49 4 C-49 4.66 -49 5.32 -49 6 C-32.83 6 -16.66 6 0 6 C0 4.02 0 2.04 0 0 Z " fill="#1B70B0" transform="translate(145,145)"/>
<path d="M0 0 C1.1446875 0.2784375 1.1446875 0.2784375 2.3125 0.5625 C5.08967375 1.22819173 5.08967375 1.22819173 8 0 C10 6.75 10 6.75 10 9 C9.01 9.495 9.01 9.495 8 10 C9.98 10.66 11.96 11.32 14 12 C14 11.34 14 10.68 14 10 C16.3125 9.375 16.3125 9.375 19 9 C19.99 9.66 20.98 10.32 22 11 C21.34 12.32 20.68 13.64 20 15 C20.99 15 21.98 15 23 15 C23 14.34 23 13.68 23 13 C23.99 13.33 24.98 13.66 26 14 C22.15229014 17.33349978 19.42764298 17.58778404 14.4609375 17.3984375 C10.57001779 16.76847907 8.34801999 15.00466964 6 12 C0 3.19354839 0 3.19354839 0 0 Z " fill="#1275BC" transform="translate(262,136)"/>
<path d="M0 0 C0.66 0.66 1.32 1.32 2 2 C1.75 3.6875 1.75 3.6875 1 6 C-0.67323645 10.53550788 -0.67323645 10.53550788 -0.4375 15.1875 C0 17 0 17 -0.8840332 19.09594727 C-4.31118453 22.1798694 -7.97925311 21.44062952 -12.41796875 21.27734375 C-13.34918045 21.25660294 -14.28039215 21.23586212 -15.23982239 21.2144928 C-17.2129624 21.16587073 -19.18587648 21.10720455 -21.15844727 21.03930664 C-24.15829651 20.93848153 -27.15728115 20.87393353 -30.15820312 20.81445312 C-32.07818501 20.7625926 -33.9981113 20.70862272 -35.91796875 20.65234375 C-36.80783981 20.63340561 -37.69771088 20.61446747 -38.61454773 20.59495544 C-44.34010031 20.37481358 -48.73593694 19.2794541 -54 17 C-53.67 16.34 -53.34 15.68 -53 15 C-51.31487305 15.7266687 -51.31487305 15.7266687 -49.59570312 16.46801758 C-44.84508278 18.24220038 -40.50057389 18.47315035 -35.46875 18.51171875 C-34.59222778 18.52966995 -33.71570557 18.54762115 -32.81262207 18.56611633 C-30.04179547 18.61984509 -27.27113735 18.65399373 -24.5 18.6875 C-22.60935174 18.72070621 -20.71872561 18.75519888 -18.828125 18.79101562 C-14.21887235 18.87554955 -9.6096664 18.94253791 -5 19 C-4.79721436 18.18305664 -4.59442871 17.36611328 -4.38549805 16.52441406 C-4.11777588 15.44901367 -3.85005371 14.37361328 -3.57421875 13.265625 C-3.30955811 12.20118164 -3.04489746 11.13673828 -2.7722168 10.04003906 C-1.91616745 6.66997062 -0.985119 3.33424891 0 0 Z " fill="#248BC0" transform="translate(231,117)"/>
<path d="M0 0 C6.93 0 13.86 0 21 0 C21.33 0.66 21.66 1.32 22 2 C21.67 2.66 21.34 3.32 21 4 C20.90444583 5.45579587 20.87015309 6.9160796 20.875 8.375 C20.87242187 9.14585938 20.86984375 9.91671875 20.8671875 10.7109375 C20.99610212 12.9328189 21.38616283 14.86618508 22 17 C21.34 17 20.68 17 20 17 C17.5614862 12.27537952 17.84482237 8.19845061 18 3 C12.72 3 7.44 3 2 3 C1.34 5.64 0.68 8.28 0 11 C-0.33 11 -0.66 11 -1 11 C-1.07622858 7.03611362 -0.9681648 3.8726592 0 0 Z " fill="#2986B7" transform="translate(153,113)"/>
<path d="M0 0 C0.99 0 1.98 0 3 0 C2.05066101 3.35433109 1.10251165 6.69246505 0 10 C-1.98 10 -3.96 10 -6 10 C-6.33 10.66 -6.66 11.32 -7 12 C-7 11.01 -7 10.02 -7 9 C-8.32 9.33 -9.64 9.66 -11 10 C-11 8.68 -11 7.36 -11 6 C-11.66 6 -12.32 6 -13 6 C-13 4.35 -13 2.7 -13 1 C-10.5625 1.75 -10.5625 1.75 -8 3 C-7.1875 5.125 -7.1875 5.125 -7 7 C-4.04283071 5.8783151 -3.09285035 5.15598859 -1.4375 2.375 C-0.963125 1.59125 -0.48875 0.8075 0 0 Z " fill="#077DCF" transform="translate(285,126)"/>
<path d="M0 0 C1.32 0 2.64 0 4 0 C6.29612756 9.41002278 6.29612756 9.41002278 6 14 C6.66 14 7.32 14 8 14 C10.9334361 19.47574739 11.07300685 22.80040487 10 29 C8.37583262 25.99682259 7.37339846 23.09183771 6.4921875 19.796875 C6.22792969 18.8171875 5.96367187 17.8375 5.69140625 16.828125 C5.28728516 15.30445313 5.28728516 15.30445313 4.875 13.75 C4.59785156 12.71875 4.32070313 11.6875 4.03515625 10.625 C3.35293998 8.0843325 2.67470281 5.54267116 2 3 C1.53980469 3.61359375 1.07960938 4.2271875 0.60546875 4.859375 C-0.9296875 6.90625 -2.46484375 8.953125 -4 11 C-4 10.01 -4 9.02 -4 8 C-4.66 7.67 -5.32 7.34 -6 7 C-5.67 6.34 -5.34 5.68 -5 5 C-4.34 5 -3.68 5 -3 5 C-2.54625 4.175 -2.0925 3.35 -1.625 2.5 C-1.08875 1.675 -0.5525 0.85 0 0 Z " fill="#1A74B3" transform="translate(305,115)"/>
<path d="M0 0 C15.84 0.495 15.84 0.495 32 1 C32 3.97 32 6.94 32 10 C31.67 10 31.34 10 31 10 C31 7.69 31 5.38 31 3 C20.77 3 10.54 3 0 3 C0 2.01 0 1.02 0 0 Z " fill="#2376B0" transform="translate(95,126)"/>
<path d="M0 0 C0.66 0.99 1.32 1.98 2 3 C3.87571977 5.60530346 3.87571977 5.60530346 6 8 C7.65 7.34 9.3 6.68 11 6 C11.33 6.99 11.66 7.98 12 9 C11.01 9.495 11.01 9.495 10 10 C10.33 11.65 10.66 13.3 11 15 C10.01 15 9.02 15 8 15 C8.66 16.98 9.32 18.96 10 21 C6.53612143 17.79597405 4.82047313 14.11911628 2.75 9.9375 C2.37359375 9.20466797 1.9971875 8.47183594 1.609375 7.71679688 C0.67327685 5.8428798 -0.17106206 3.92372213 -1 2 C-0.67 1.34 -0.34 0.68 0 0 Z " fill="#107ECC" transform="translate(252,114)"/>
<path d="M0 0 C0.66 0 1.32 0 2 0 C1.96519531 0.89460938 1.93039063 1.78921875 1.89453125 2.7109375 C1.68413758 12.10852128 2.65018548 19.64079123 7 28 C6.34 28.33 5.68 28.66 5 29 C-0.36983438 20.27401914 -2.07554501 13.2244848 -1 3 C-0.67 2.01 -0.34 1.02 0 0 Z M4 19 C4.66 19.66 5.32 20.32 6 21 C5.34 21 4.68 21 4 21 C4 20.34 4 19.68 4 19 Z " fill="#176BB0" transform="translate(66,111)"/>
<path d="M0 0 C2.49391811 2.29521795 4.17354097 4.69835668 5.91796875 7.59765625 C6.71557617 8.92313477 6.71557617 8.92313477 7.52929688 10.27539062 C8.07650391 11.19513672 8.62371094 12.11488281 9.1875 13.0625 C9.74630859 13.98611328 10.30511719 14.90972656 10.88085938 15.86132812 C11.40873047 16.74369141 11.93660156 17.62605469 12.48046875 18.53515625 C12.96410889 19.343479 13.44774902 20.15180176 13.94604492 20.98461914 C15 23 15 23 15 25 C14.34 25 13.68 25 13 25 C12.54625 24.195625 12.0925 23.39125 11.625 22.5625 C10.2874638 19.83093143 10.2874638 19.83093143 7.875 19.375 C7.25625 19.25125 6.6375 19.1275 6 19 C5.67 18.01 5.34 17.02 5 16 C5.66 16 6.32 16 7 16 C6.34 14.88625 5.68 13.7725 5 12.625 C3 9.25 3 9.25 3 7 C2.34 7 1.68 7 1 7 C0.67 4.69 0.34 2.38 0 0 Z " fill="#1C77B6" transform="translate(260,98)"/>
<path d="M0 0 C0.99 0.99 1.98 1.98 3 3 C0.03 7.95 0.03 7.95 -3 13 C-6 12 -6 12 -7.1875 9.9375 C-7.455625 9.298125 -7.72375 8.65875 -8 8 C-8.99 8 -9.98 8 -11 8 C-11 6.35 -11 4.7 -11 3 C-10.01 2.67 -9.02 2.34 -8 2 C-7.01 3.98 -6.02 5.96 -5 8 C-3.35 5.36 -1.7 2.72 0 0 Z " fill="#1476BC" transform="translate(284,121)"/>
<path d="M0 0 C0.66 0 1.32 0 2 0 C2.33 1.98 2.66 3.96 3 6 C5.62561109 6.08074203 8.24875676 6.1403623 10.875 6.1875 C11.62136719 6.21263672 12.36773437 6.23777344 13.13671875 6.26367188 C15.56221828 6.3298764 15.56221828 6.3298764 19 6 C19.66 5.01 20.32 4.02 21 3 C21.33 4.98 21.66 6.96 22 9 C15.4 9 8.8 9 2 9 C0 4 0 4 0 0 Z " fill="#1F6BA6" transform="translate(315,144)"/>
<path d="M0 0 C-1.6281644 3.75730247 -4.01401917 6.616823 -6.625 9.75 C-7.44226563 10.73484375 -8.25953125 11.7196875 -9.1015625 12.734375 C-9.72804687 13.48203125 -10.35453125 14.2296875 -11 15 C-11 11.89448334 -10.4606285 10.64738916 -9 8 C-8.34 8 -7.68 8 -7 8 C-7 6.68 -7 5.36 -7 4 C-6.34 4 -5.68 4 -5 4 C-5 3.34 -5 2.68 -5 2 C-9.95 1.67 -14.9 1.34 -20 1 C-20 0.67 -20 0.34 -20 0 C-17.04196565 -0.19421438 -14.08379837 -0.38066186 -11.125 -0.5625 C-10.28324219 -0.61857422 -9.44148437 -0.67464844 -8.57421875 -0.73242188 C-7.76855469 -0.78076172 -6.96289062 -0.82910156 -6.1328125 -0.87890625 C-5.01737061 -0.94960327 -5.01737061 -0.94960327 -3.87939453 -1.02172852 C-2 -1 -2 -1 0 0 Z " fill="#1D84BE" transform="translate(236,90)"/>
<path d="M0 0 C1.1446875 0.2784375 1.1446875 0.2784375 2.3125 0.5625 C5.08967375 1.22819173 5.08967375 1.22819173 8 0 C10 6.75 10 6.75 10 9 C7.25 8.875 7.25 8.875 4 8 C0 3.05263158 0 3.05263158 0 0 Z " fill="#0E7DC6" transform="translate(262,136)"/>
<path d="M0 0 C0.99 0 1.98 0 3 0 C1.46688715 5.51568187 -1.18752444 10.02034852 -4.125 14.875 C-4.59292969 15.65875 -5.06085938 16.4425 -5.54296875 17.25 C-6.69018108 19.16982472 -7.8426007 21.08630561 -9 23 C-10 20 -10 20 -8.5625 16.8125 C-8.046875 15.884375 -7.53125 14.95625 -7 14 C-6.34 14 -5.68 14 -5 14 C-5 12.68 -5 11.36 -5 10 C-4.34 10 -3.68 10 -3 10 C-2.87625 9.46375 -2.7525 8.9275 -2.625 8.375 C-1.87793984 5.5361714 -0.94696636 2.77776798 0 0 Z " fill="#1C70B1" transform="translate(298,126)"/>
<path d="M0 0 C3.08018666 2.97751377 3.52419687 5.8129325 4 10 C3.01 9.34 2.02 8.68 1 8 C0.8125 5.375 0.8125 5.375 1 3 C0.01 2.67 -0.98 2.34 -2 2 C-2.66 1.67 -3.32 1.34 -4 1 C-5.53668865 0.77532169 -7.07968054 0.59203195 -8.625 0.4375 C-9.44226563 0.35371094 -10.25953125 0.26992187 -11.1015625 0.18359375 C-11.72804688 0.12300781 -12.35453125 0.06242187 -13 0 C-13 -0.66 -13 -1.32 -13 -2 C-7.72402655 -3.41550507 -4.76250323 -2.60589799 0 0 Z " fill="#146FB5" transform="translate(318,92)"/>
<path d="M0 0 C0 3 0 3 -1.75 6.25 C-4.99485696 12.41522822 -6.35372332 19.27478461 -8 26 C-8.66 26 -9.32 26 -10 26 C-8.72078517 17.54190792 -6.85537029 5.73612616 0 0 Z " fill="#2584B8" transform="translate(242,91)"/>
<path d="M0 0 C0.598125 0.309375 1.19625 0.61875 1.8125 0.9375 C4.08956772 2.10209704 4.08956772 2.10209704 7 3 C7.6875 5.0625 7.6875 5.0625 8 7 C9.27875 7.0825 10.5575 7.165 11.875 7.25 C14.0546875 7.390625 14.0546875 7.390625 16 8 C17.2578125 10.046875 17.2578125 10.046875 18 12 C10.88034827 10.26952909 6.04032589 7.3360593 1 2 C0.67 1.34 0.34 0.68 0 0 Z " fill="#1E7EBD" transform="translate(159,139)"/>
<path d="M0 0 C0.66 0.33 1.32 0.66 2 1 C0.68 6.28 -0.64 11.56 -2 17 C-2.33 17 -2.66 17 -3 17 C-3 14.69 -3 12.38 -3 10 C-3.66 9.67 -4.32 9.34 -5 9 C-3.625 7 -3.625 7 -2 5 C-1.34 5 -0.68 5 0 5 C0 3.35 0 1.7 0 0 Z " fill="#2784BE" transform="translate(249,116)"/>
<path d="M0 0 C3 3.75 3 3.75 3 6 C3.598125 6.28875 4.19625 6.5775 4.8125 6.875 C7 8 7 8 10 10 C2.25 9.25 2.25 9.25 0 7 C-0.125 3.375 -0.125 3.375 0 0 Z " fill="#1A6EB1" transform="translate(85,125)"/>
<path d="M0 0 C0 1.32 0 2.64 0 4 C-0.99 4 -1.98 4 -3 4 C-3 4.66 -3 5.32 -3 6 C-3.99 6 -4.98 6 -6 6 C-6.33 5.01 -6.66 4.02 -7 3 C-6.34 2.67 -5.68 2.34 -5 2 C-5.33 1.34 -5.66 0.68 -6 0 C-3 -1 -3 -1 0 0 Z " fill="#0A79CB" transform="translate(288,145)"/>
<path d="M0 0 C-0.66 1.32 -1.32 2.64 -2 4 C-2.33 3.01 -2.66 2.02 -3 1 C-8.61 1 -14.22 1 -20 1 C-20 0.67 -20 0.34 -20 0 C-17.04196565 -0.19421438 -14.08379837 -0.38066186 -11.125 -0.5625 C-10.28324219 -0.61857422 -9.44148437 -0.67464844 -8.57421875 -0.73242188 C-7.76855469 -0.78076172 -6.96289062 -0.82910156 -6.1328125 -0.87890625 C-5.01737061 -0.94960327 -5.01737061 -0.94960327 -3.87939453 -1.02172852 C-2 -1 -2 -1 0 0 Z " fill="#2B8BBB" transform="translate(236,90)"/>
<path d="M0 0 C0.66 0.99 1.32 1.98 2 3 C2.515625 3.61875 3.03125 4.2375 3.5625 4.875 C5.18004126 7.26614794 5.60612494 9.16409959 6 12 C5.34 12 4.68 12 4 12 C3.13624104 10.38007835 2.28424146 8.75388139 1.4375 7.125 C0.72400391 5.76761719 0.72400391 5.76761719 -0.00390625 4.3828125 C-0.33261719 3.59648438 -0.66132813 2.81015625 -1 2 C-0.67 1.34 -0.34 0.68 0 0 Z " fill="#187EB8" transform="translate(252,114)"/>
<path d="M0 0 C-1.32 0.33 -2.64 0.66 -4 1 C-4 1.66 -4 2.32 -4 3 C-5.65 2.67 -7.3 2.34 -9 2 C-9.33 2.99 -9.66 3.98 -10 5 C-10.33 4.34 -10.66 3.68 -11 3 C-11.66 2.67 -12.32 2.34 -13 2 C-8.49646738 0.24252386 -4.82360189 -0.19294408 0 0 Z " fill="#0772C3" transform="translate(100,91)"/>
<path d="M0 0 C4.0042343 3.49087093 5.62671065 5.64951939 6 11 C5.01 10.34 4.02 9.68 3 9 C2.8125 6.375 2.8125 6.375 3 4 C2.01 3.67 1.02 3.34 0 3 C0 2.01 0 1.02 0 0 Z " fill="#1968A7" transform="translate(316,91)"/>
<path d="M0 0 C0 2.83967231 -0.40267181 5.23735711 -1 8 C-2.65 8.33 -4.3 8.66 -6 9 C-4.47291037 5.56404834 -2.40072955 2.88087546 0 0 Z " fill="#1D71B3" transform="translate(103,116)"/>
<path d="M0 0 C0.66 0 1.32 0 2 0 C1.34 3.63 0.68 7.26 0 11 C-0.33 11 -0.66 11 -1 11 C-1.0270043 9.54176788 -1.04639787 8.08339325 -1.0625 6.625 C-1.07410156 5.81289062 -1.08570313 5.00078125 -1.09765625 4.1640625 C-1 2 -1 2 0 0 Z " fill="#2281BA" transform="translate(244,133)"/>
<path d="M0 0 C1.32 0 2.64 0 4 0 C6.25 2.5 6.25 2.5 8 5 C7.67 5.66 7.34 6.32 7 7 C5.83040013 6.02433888 4.66438823 5.044375 3.5 4.0625 C2.8503125 3.51722656 2.200625 2.97195312 1.53125 2.41015625 C1.0259375 1.94480469 0.520625 1.47945312 0 1 C0 0.67 0 0.34 0 0 Z " fill="#186AAF" transform="translate(72,140)"/>
<path d="" fill="#000000" transform="translate(0,0)"/>
<path d="" fill="#000000" transform="translate(0,0)"/>
</svg>
